<?xml version="1.0" encoding="utf-8"?>
<!-- Generator: Adobe Illustrator 22.0.1, SVG Export Plug-In . SVG Version: 6.00 Build 0)  -->
<svg version="1.1" id="Capa_1" xmlns="http://www.w3.org/2000/svg" xmlns:xlink="http://www.w3.org/1999/xlink" x="0px" y="0px"
	 viewBox="0 0 512 512" style="enable-background:new 0 0 512 512;" xml:space="preserve">
<style type="text/css">
	.st0{fill:#00FFFF;}
</style>
<g>
	<g>
		<g>
			<g>
				<path class="st0" d="M258.7,367.3c-65.7-11-110.2-73.5-99.2-139.2s73.5-110.2,139.2-99.2s110.2,73.5,99.2,139.2
					S324.4,378.4,258.7,367.3z M294.5,153.8c-52-8.7-101.4,26.5-110.2,78.5s26.5,101.4,78.5,110.2S364.3,316,373,264
					S346.5,162.5,294.5,153.8z"/>
			</g>
			<g>
				<path class="st0" d="M240.1,504.7c-1.5-0.2-2.9-0.5-4.4-0.8C116.2,481.3,4.7,359.4,29.1,213.9C39.9,149.9,76,93.1,130.8,54.2
					C186.7,14.4,256.9-3.1,318.6,7.2c0.1,0,0.3,0,0.4,0.1C411.4,23,466.8,97.6,486.3,129l-8.6,5.3
					c-18.8-30.2-72.1-102.1-160.3-117.1c-0.1,0-0.3,0-0.4-0.1c-59.2-9.9-126.6,7-180.4,45.2C84,99.8,49.3,154.2,39,215.6
					C15.6,355.3,122.8,472.3,237.5,494c109.7,20.9,195.8-53.4,199.4-56.6l6.6,7.6C439.9,448.2,352.4,523.5,240.1,504.7z"/>
			</g>
		</g>
	</g>
</g>
</svg>
