<?xml version="1.0" encoding="utf-8"?>
<!-- Generator: Adobe Illustrator 22.0.1, SVG Export Plug-In . SVG Version: 6.00 Build 0)  -->
<svg version="1.1" id="Capa_1" xmlns="http://www.w3.org/2000/svg" xmlns:xlink="http://www.w3.org/1999/xlink" x="0px" y="0px"
	 viewBox="0 0 1642 512" style="enable-background:new 0 0 1642 512;" xml:space="preserve">
<style type="text/css">
	.st0{fill:none;}
	.st1{fill:#E3C83A;}
	.st2{fill:#0052B4;}
	.st3{fill:#D80027;}
	.st4{stroke:#000000;stroke-width:0.8703;stroke-miterlimit:10;}
	.st5{font-family:'Montserrat-Light';}
	.st6{font-size:200px;}
	.st7{font-family:'Montserrat-Bold';}
</style>
<g>
	<g>
		<circle class="st0" cx="160.4" cy="133.2" r="65.7"/>
		<path class="st1" d="M112.9,178.5c-11.3-11.8-18.2-27.8-18.2-45.3c0-36.2,29.5-65.7,65.7-65.7c21.4,0,40.5,10.3,52.5,26.3
			c14.4-16.4,27.6-34.3,38.8-53.8C228.1,17,195.9,2.7,160.4,2.7c-72,0-130.5,58.5-130.5,130.5c0,24.8,9,52.8,22.1,80.5
			c17.1-8.8,35.5-19,54.1-30.8C108.4,181.5,110.7,180,112.9,178.5z"/>
		<path class="st2" d="M290.8,128.1c-1.3-33.4-15.2-63.6-37.1-86c-11.3,19.5-24.6,37.5-39.1,54c7.3,10.6,11.5,23.4,11.5,37.1
			c0,36.2-29.5,65.7-65.7,65.7c-17.7,0-33.7-7-45.5-18.4c-2.5,1.6-4.9,3.2-7.3,4.7c-18.7,11.8-37.2,22.1-54.4,30.9
			c13.1,27.1,30,53.7,46.1,76.5c16-8.3,32.9-17.8,50.1-28.7C197.4,233.6,254,188.3,290.8,128.1z"/>
		<path class="st3" d="M150.8,266.3c-17.1,10.8-34,20.4-49.9,28.6c13.4,18.9,26.2,35,35.5,46.4c28.7-20.5,61.4-44.5,95.3-71.1
			c3.5-2.8,7-5.5,10.4-8.3c25.9-41.4,48.8-89.1,48.8-128.6c0,0,0-0.1,0-0.1C253.9,192,198.2,236.3,150.8,266.3z"/>
	</g>
	<g>
		<path d="M362.4,118.8c-0.3-1.1-0.7-2.2-1-3.3c-0.4-1-1-2-1.5-3c-0.2-0.5-0.5-1-0.7-1.4c-0.3-0.4-0.6-0.9-0.9-1.3
			c-0.6-0.8-1.2-1.6-1.8-2.4c-1.4-1.4-2.7-2.7-4-3.9c-1.4-1-2.8-2-4.1-2.9c-2.8-1.5-5.2-3-7.5-3.8c-2.3-0.9-4.2-1.7-5.8-2.1
			c-3.2-0.9-4.8-1.4-4.8-1.4s1.6,0.6,4.7,1.8c1.6,0.5,3.4,1.4,5.6,2.5c2.2,0.9,4.5,2.5,7.1,4.2c1.2,1,2.5,2,3.8,3.1
			c1.2,1.2,2.4,2.5,3.6,3.9c0.5,0.8,1,1.6,1.5,2.4c0.3,0.4,0.5,0.8,0.8,1.2l0.6,1.4c0.4,0.9,0.9,1.8,1.2,2.8c0.2,1,0.5,2,0.8,3
			c1.7,8.4-0.9,18.4-5.8,28.1c-4.8,9.9-12.1,19.7-20.4,29.7c-8.4,10-18.1,20.1-28.7,30.3c-18.5,17.8-39.8,35.9-62.7,54.2
			c-3.4,2.8-6.9,5.5-10.4,8.3c-33.9,26.6-66.5,50.6-95.3,71.1c-16.9,12.1-32.5,23-46.1,32.5c-36.9,25.6-60.1,41-60.1,41
			s24.3-13.5,62.5-37.3c14.2-8.9,30.5-19.3,48-31c26.5-17.6,56-38.3,86.4-61.7c3.3-2.6,6.6-5.1,10-7.8c27-21.3,51.8-42.8,72.9-64.1
			c10.5-10.6,20-21.2,28.2-31.8c8.1-10.6,15.1-21.1,19.7-31.6c2.4-5.2,4-10.6,4.9-15.7C363.7,128.5,363.4,123.4,362.4,118.8z"/>
		<g>
			<path class="st4" d="M343.6,58.1c0,0,2.3-0.4,6.6-1c4.3-0.6,10.6-1.8,18.9-2.7c8.2-1,18.3-2,30.1-2.4c3-0.1,6-0.1,9.2-0.2
				c3.2-0.1,6.4,0.1,9.8,0.2c3.4,0.1,6.8,0.2,10.3,0.6c3.5,0.4,7.2,0.5,10.9,1.2c14.8,2.1,31.2,6.3,46.5,16.1
				c7.5,5.1,14.4,11.7,19.8,19.9c5.4,8.1,9.1,17.7,10.8,27.7c3.5,20.1,1,41.5-4.3,62.4c-5.3,21-13.5,41.8-23,62.5
				c-19.3,41.3-42.4,78-64.4,110.4c-22.2,32.4-43.6,60.5-62.1,83.6c-18.5,23.1-34.1,41.3-45.1,53.8c-10.9,12.4-17.2,19.1-17.2,19.1
				s5.9-7,16.2-20c10.3-13,25.1-31.8,42.7-55.6c17.6-23.8,38.1-52.4,59.4-85c21.2-32.7,43.6-69.4,62.6-110
				c9.4-20.3,17.5-40.7,22.8-60.9c5.4-20.2,8-40.5,5.1-59.1c-1.4-9.3-4.6-18-9.2-25.4c-4.6-7.5-10.8-13.6-17.5-18.5
				c-13.9-9.4-29.5-14.1-43.8-16.7c-3.6-0.8-7.2-1-10.6-1.6c-3.4-0.5-6.8-0.8-10.1-1c-3.3-0.2-6.5-0.6-9.6-0.6
				c-3.1-0.1-6.1-0.1-9.1-0.2c-11.7-0.1-21.8,0.4-30.1,1c-8.3,0.4-14.6,1.3-19,1.7C345.9,57.9,343.6,58.1,343.6,58.1z"/>
		</g>
		<g>
			<path class="st1" d="M376,77c0,0,1.7,0.1,5,0.3c3.3,0.1,8.1,0.7,14.3,1.7c6.1,1.2,13.7,2.9,21.8,6.9c2,1.1,4.2,2,6.1,3.6
				c1,0.7,2,1.4,3,2.2c1,0.8,1.9,1.7,2.8,2.6l1.4,1.4c0.5,0.5,0.8,1,1.3,1.5c0.8,1.1,1.7,2.1,2.5,3.3c0.7,1.2,1.4,2.4,2.1,3.7
				c0.8,1.2,1.2,2.6,1.8,4c2.1,5.5,3.3,11.6,3.1,18c-0.1,6.3-1,12.9-2.7,19.3c-3.3,13-9.1,26.1-16.1,39.3
				c-14.2,26.2-33.6,52.5-55.5,78.7c-21.9,26.1-44.4,49.6-65.3,70.3c-20.9,20.7-40.5,38.7-57.1,53.5c-33.3,29.6-55,46.6-55,46.6
				s20.3-18.6,52-49.7c15.9-15.6,34.6-34.3,54.8-55.5c20.3-21.2,42.1-44.9,63.9-70.8c21.6-25.9,41.2-51.5,55.7-76.7
				c7.2-12.6,13.2-25,16.8-37.2c3.6-12.1,4.7-24.3,1.3-34.3c-0.5-1.2-0.7-2.5-1.4-3.6c-0.6-1.1-1.2-2.3-1.7-3.4
				c-0.7-1.1-1.4-2-2.1-3c-0.4-0.5-0.7-1-1.1-1.5l-1.2-1.3c-0.8-0.9-1.6-1.8-2.5-2.5c-0.9-0.7-1.8-1.5-2.7-2.2
				c-1.7-1.5-3.7-2.5-5.5-3.7c-7.5-4.3-14.9-6.4-20.8-8c-6-1.4-10.8-2.2-14-2.6C377.7,77.2,376,77,376,77z"/>
		</g>
	</g>
</g>
<rect x="645" y="83.5" class="st0" width="997" height="345"/>
<text transform="matrix(1 0 0 1 645 231.8979)"><tspan x="0" y="0" class="st5 st6">Rutas por </tspan><tspan x="0" y="193" class="st7 st6">Colom</tspan><tspan x="678.6" y="193" class="st7 st6">-</tspan></text>
</svg>
